<svg width="20" height="20" viewBox="0 0 20 20" fill="none">
<path fill-rule="evenodd" clip-rule="evenodd" d="M6.221 0.888336C7.1985 0.843336 7.51016 0.833336 10.0002 0.833336C12.4902 0.833336 12.8018 0.844169 13.7785 0.888336C14.7552 0.932503 15.4218 1.08834 16.0052 1.31417C16.616 1.545 17.1702 1.90584 17.6285 2.3725C18.0952 2.83 18.4552 3.38334 18.6852 3.995C18.9118 4.57834 19.0668 5.245 19.1118 6.22C19.1568 7.19917 19.1668 7.51084 19.1668 10C19.1668 12.49 19.156 12.8017 19.1118 13.7792C19.0677 14.7542 18.9118 15.4208 18.6852 16.0042C18.4552 16.6159 18.0946 17.1702 17.6285 17.6283C17.1702 18.095 16.616 18.455 16.0052 18.685C15.4218 18.9117 14.7552 19.0667 13.7802 19.1117C12.8018 19.1567 12.4902 19.1667 10.0002 19.1667C7.51016 19.1667 7.1985 19.1558 6.221 19.1117C5.246 19.0675 4.57933 18.9117 3.996 18.685C3.38426 18.455 2.83001 18.0944 2.37183 17.6283C1.90548 17.1706 1.54459 16.6166 1.31433 16.005C1.0885 15.4217 0.933496 14.755 0.888496 13.78C0.843496 12.8008 0.833496 12.4892 0.833496 10C0.833496 7.51 0.844329 7.19834 0.888496 6.22167C0.932663 5.245 1.0885 4.57834 1.31433 3.995C1.54493 3.3834 1.90609 2.82943 2.37266 2.37167C2.8302 1.90542 3.38389 1.54454 3.99516 1.31417C4.5785 1.08834 5.24516 0.933336 6.22016 0.888336H6.221ZM13.7043 2.53834C12.7377 2.49417 12.4477 2.485 10.0002 2.485C7.55266 2.485 7.26266 2.49417 6.296 2.53834C5.40183 2.57917 4.91683 2.72834 4.5935 2.85417C4.166 3.02084 3.86016 3.21834 3.53933 3.53917C3.2352 3.83505 3.00115 4.19524 2.85433 4.59334C2.7285 4.91667 2.57933 5.40167 2.5385 6.29584C2.49433 7.2625 2.48516 7.5525 2.48516 10C2.48516 12.4475 2.49433 12.7375 2.5385 13.7042C2.57933 14.5983 2.7285 15.0833 2.85433 15.4067C3.001 15.8042 3.23516 16.165 3.53933 16.4608C3.83516 16.765 4.196 16.9992 4.5935 17.1458C4.91683 17.2717 5.40183 17.4208 6.296 17.4617C7.26266 17.5058 7.55183 17.515 10.0002 17.515C12.4485 17.515 12.7377 17.5058 13.7043 17.4617C14.5985 17.4208 15.0835 17.2717 15.4068 17.1458C15.8343 16.9792 16.1402 16.7817 16.461 16.4608C16.7652 16.165 16.9993 15.8042 17.146 15.4067C17.2718 15.0833 17.421 14.5983 17.4618 13.7042C17.506 12.7375 17.5152 12.4475 17.5152 10C17.5152 7.5525 17.506 7.2625 17.4618 6.29584C17.421 5.40167 17.2718 4.91667 17.146 4.59334C16.9793 4.16584 16.7818 3.86 16.461 3.53917C16.1651 3.23506 15.8049 3.00101 15.4068 2.85417C15.0835 2.72834 14.5985 2.57917 13.7043 2.53834ZM8.82933 12.8258C9.48321 13.098 10.2113 13.1348 10.8893 12.9298C11.5672 12.7248 12.153 12.2908 12.5465 11.7019C12.94 11.113 13.1169 10.4057 13.0469 9.70092C12.9769 8.99612 12.6643 8.33748 12.1627 7.8375C11.8429 7.5179 11.4562 7.27318 11.0304 7.12096C10.6047 6.96874 10.1505 6.9128 9.70057 6.95718C9.25063 7.00156 8.81612 7.14515 8.42833 7.37761C8.04054 7.61007 7.70912 7.92562 7.45791 8.30154C7.20671 8.67747 7.04199 9.10441 6.97559 9.55164C6.9092 9.99886 6.94279 10.4552 7.07395 10.8879C7.2051 11.3206 7.43056 11.7188 7.7341 12.0539C8.03763 12.389 8.41168 12.6527 8.82933 12.8258ZM6.6685 6.66833C7.10602 6.23081 7.62543 5.88375 8.19708 5.64697C8.76873 5.41019 9.38141 5.28831 10.0002 5.28831C10.6189 5.28831 11.2316 5.41019 11.8032 5.64697C12.3749 5.88375 12.8943 6.23081 13.3318 6.66833C13.7693 7.10586 14.1164 7.62527 14.3532 8.19692C14.59 8.76857 14.7119 9.38125 14.7119 10C14.7119 10.6187 14.59 11.2314 14.3532 11.8031C14.1164 12.3747 13.7693 12.8941 13.3318 13.3317C12.4482 14.2153 11.2498 14.7117 10.0002 14.7117C8.75054 14.7117 7.55211 14.2153 6.6685 13.3317C5.78488 12.4481 5.28847 11.2496 5.28847 10C5.28847 8.75038 5.78488 7.55195 6.6685 6.66833ZM15.7568 5.99C15.8652 5.88773 15.952 5.76474 16.0121 5.62831C16.0721 5.49189 16.1042 5.34481 16.1063 5.19578C16.1085 5.04674 16.0808 4.89879 16.0247 4.76068C15.9687 4.62256 15.8855 4.49709 15.7801 4.3917C15.6747 4.28631 15.5493 4.20313 15.4112 4.1471C15.273 4.09107 15.1251 4.06332 14.9761 4.06549C14.827 4.06766 14.6799 4.09971 14.5435 4.15975C14.4071 4.21978 14.2841 4.30658 14.1818 4.415C13.9829 4.62586 13.874 4.90594 13.8782 5.19578C13.8825 5.48562 13.9995 5.7624 14.2045 5.96737C14.4094 6.17234 14.6862 6.28936 14.9761 6.29358C15.2659 6.29781 15.546 6.18891 15.7568 5.99Z" fill="white"/>
</svg>
